<svg width="20" height="20" viewBox="0 0 20 20" fill="none" xmlns="http://www.w3.org/2000/svg">
<path d="M10.0585 17.0606L10.0587 17.0605C10.3399 16.7792 10.4978 16.3977 10.4978 16C10.4978 15.6023 10.3399 15.2208 10.0587 14.9395L10.0586 14.9394L6.61915 11.5L16.998 11.5C17.3959 11.5 17.7774 11.342 18.0587 11.0607C18.34 10.7794 18.498 10.3978 18.498 10C18.498 9.60218 18.34 9.22064 18.0587 8.93934C17.7774 8.65804 17.3959 8.5 16.998 8.5L6.61915 8.5L10.0586 5.06055L10.0587 5.06061L10.0647 5.05435C10.3379 4.77145 10.4891 4.39255 10.4857 3.99925C10.4823 3.60596 10.3245 3.22974 10.0464 2.95163C9.76831 2.67352 9.39209 2.51576 8.99879 2.51234C8.6055 2.50893 8.2266 2.66012 7.94369 2.93335L7.94364 2.9333L7.93749 2.93944L1.93749 8.93945L1.93744 8.9395C1.65623 9.22079 1.49826 9.60225 1.49826 10C1.49826 10.3977 1.65623 10.7792 1.93744 11.0605L1.93749 11.0606L7.93749 17.0606L7.93755 17.0606C8.21884 17.3418 8.6003 17.4998 8.99805 17.4998C9.39579 17.4998 9.77726 17.3418 10.0585 17.0606Z" fill="white" stroke="white"/>
</svg>
