<svg width="25" height="24" viewBox="0 0 25 24" fill="none" xmlns="http://www.w3.org/2000/svg">
<path fill-rule="evenodd" clip-rule="evenodd" d="M12.3301 24C18.9575 24 24.3301 18.6274 24.3301 12C24.3301 5.37258 18.9575 0 12.3301 0C5.70266 0 0.330078 5.37258 0.330078 12C0.330078 18.6274 5.70266 24 12.3301 24ZM18.0823 4.55148C18.551 4.08285 19.3108 4.08285 19.7794 4.55148C20.248 5.02011 20.248 5.77991 19.7794 6.24854L14.0279 12L19.7794 17.7515C20.248 18.2201 20.248 18.9799 19.7794 19.4485C19.3108 19.9172 18.551 19.9172 18.0823 19.4485L12.3309 13.6971L6.57939 19.4485C6.11076 19.9172 5.35096 19.9172 4.88233 19.4485C4.4137 18.9799 4.4137 18.2201 4.88233 17.7515L10.6338 12L4.88233 6.24854C4.4137 5.77991 4.4137 5.02011 4.88233 4.55148C5.35096 4.08285 6.11076 4.08285 6.57939 4.55148L12.3309 10.303L18.0823 4.55148Z" fill="white"/>
</svg>
