<svg width="32" height="32" viewBox="0 0 32 32" fill="none" xmlns="http://www.w3.org/2000/svg">
<circle cx="16" cy="16" r="16" fill="#D3BC2A"/>
<path d="M7.06688 11.322C7.63028 9.60417 9.22026 8.44626 11.0245 8.44626C12.8288 8.44626 14.4188 9.60072 14.9822 11.322L15.0202 11.443H17.3741L17.4121 11.322C17.972 9.60417 19.562 8.44626 21.3698 8.44626C23.1775 8.44626 24.7675 9.60072 25.3274 11.322L25.3654 11.443H27.4704L27.422 11.2322C26.7895 8.43243 24.2421 6.40002 21.3698 6.40002C19.2717 6.40002 17.3568 7.43697 16.1989 9.18594C15.0375 7.43697 13.1261 6.40002 11.0245 6.40002C8.15567 6.40002 5.60825 8.43243 4.9688 11.2322L4.92041 11.443H7.02886L7.06688 11.322V11.322Z" fill="white"/>
<path d="M25.2931 21.249C24.7021 22.9046 23.1259 24.0141 21.37 24.0141C19.6141 24.0141 18.0449 22.9011 17.4504 21.249L17.4089 21.1349H14.9825L14.941 21.249C14.3499 22.9046 12.7738 24.0141 11.0213 24.0141C9.26891 24.0141 7.69276 22.9011 7.09824 21.249L7.05677 21.1349H4.94141L4.99325 21.3492C5.68455 24.1247 8.16284 26.0638 11.0248 26.0638C13.1263 26.0638 15.0378 25.0269 16.1957 23.2779C17.3536 25.0269 19.2685 26.0638 21.3666 26.0638C24.2285 26.0638 26.7068 24.1247 27.3981 21.3492L27.4499 21.1349H25.3311L25.2897 21.249H25.2931Z" fill="white"/>
<path d="M27.5159 13.4512L27.6162 13.2092H25.3453L25.2934 13.2887C24.5192 14.4985 23.2092 15.2209 21.7885 15.2209H21.6157V17.2879H21.7885C23.2437 17.2879 24.571 18.0345 25.3383 19.2857L25.3902 19.3687H27.6473L27.5505 19.1302C27.0769 17.9619 26.2405 16.9491 25.1793 16.2544C26.2094 15.5804 27.0355 14.5918 27.5159 13.4512V13.4512Z" fill="white"/>
<path d="M8.40836 16.9561C9.16878 17.1151 9.96032 17.205 10.7242 17.2914C12.8188 17.5264 14.6266 17.7269 15.1623 19.2512L15.2038 19.3653H17.2638L17.2362 19.1683C17.0115 17.4988 15.7534 16.1784 14.0977 15.8812C13.8143 15.8293 13.441 15.7844 13.0124 15.7291C12.0031 15.6012 10.617 15.4284 8.98559 15.0309C8.38071 14.8822 7.31957 14.2912 7.05342 13.3303L7.01886 13.2024H4.7998L4.84128 13.4098C5.23186 15.418 6.91517 16.6347 8.41182 16.9527L8.40836 16.9561Z" fill="white"/>
</svg>
