<svg width="11" height="7" viewBox="0 0 11 7" fill="none" xmlns="http://www.w3.org/2000/svg">
<path id="Vector" fill-rule="evenodd" clip-rule="evenodd" d="M0.292787 0.799307C0.480314 0.611836 0.734622 0.50652 0.999786 0.50652C1.26495 0.50652 1.51926 0.611836 1.70679 0.799307L4.99979 4.09231L8.29279 0.799307C8.38503 0.703797 8.49538 0.627614 8.61738 0.575205C8.73939 0.522796 8.87061 0.49521 9.00339 0.494056C9.13616 0.492902 9.26784 0.518204 9.39074 0.568485C9.51364 0.618766 9.62529 0.693019 9.71918 0.786912C9.81307 0.880804 9.88733 0.992456 9.93761 1.11535C9.98789 1.23825 10.0132 1.36993 10.012 1.50271C10.0109 1.63549 9.9833 1.76671 9.93089 1.88871C9.87848 2.01072 9.8023 2.12106 9.70679 2.21331L5.70679 6.21331C5.51926 6.40078 5.26495 6.50609 4.99979 6.50609C4.73462 6.50609 4.48031 6.40078 4.29279 6.21331L0.292787 2.21331C0.105316 2.02578 0 1.77147 0 1.50631C0 1.24114 0.105316 0.986835 0.292787 0.799307Z" fill="white"/>
</svg>
