<svg width="32" height="32" viewBox="0 0 32 32" fill="none" xmlns="http://www.w3.org/2000/svg">
<g id="solid/search">
<path id="Vector" fill-rule="evenodd" clip-rule="evenodd" d="M12.8002 6.39996C11.1028 6.39996 9.47494 7.07424 8.27471 8.27447C7.07448 9.47471 6.4002 11.1026 6.4002 12.8C6.4002 14.4973 7.07448 16.1252 8.27471 17.3254C9.47494 18.5257 11.1028 19.2 12.8002 19.2C14.4976 19.2 16.1254 18.5257 17.3257 17.3254C18.5259 16.1252 19.2002 14.4973 19.2002 12.8C19.2002 11.1026 18.5259 9.47471 17.3257 8.27447C16.1254 7.07424 14.4976 6.39996 12.8002 6.39996ZM3.2002 12.8C3.2 11.2891 3.55642 9.7995 4.24047 8.45234C4.92452 7.10519 5.91687 5.93851 7.13683 5.0472C8.35679 4.15588 9.7699 3.5651 11.2612 3.32289C12.7526 3.08068 14.28 3.19389 15.7193 3.65332C17.1587 4.11274 18.4692 4.9054 19.5445 5.96683C20.6197 7.02826 21.4292 8.32849 21.9072 9.76177C22.3851 11.195 22.518 12.7209 22.2951 14.2152C22.0722 15.7096 21.4997 17.1302 20.6242 18.3616L28.3314 26.0688C28.6229 26.3705 28.7841 26.7747 28.7805 27.1942C28.7768 27.6137 28.6086 28.015 28.3119 28.3117C28.0153 28.6083 27.614 28.7766 27.1944 28.7802C26.7749 28.7839 26.3708 28.6226 26.069 28.3312L18.3634 20.6256C16.9272 21.6468 15.2376 22.253 13.4797 22.3777C11.7218 22.5025 9.96351 22.1409 8.39748 21.3327C6.83144 20.5245 5.51809 19.3008 4.60135 17.7957C3.68461 16.2906 3.19985 14.5623 3.2002 12.8Z" fill="#D3BC2A"/>
</g>
</svg>
